<svg width="808" height="808" viewBox="0 0 808 808" fill="none" xmlns="http://www.w3.org/2000/svg">
<path d="M565.587 546.846V580.918H773.164V354.995L789.414 326.689L566.112 327.737L557.725 346.084C559.447 472.538 560.535 529.993 558.773 539.508H561.394V541.604H562.442V543.701L565.587 546.846Z" fill="#E0E8DA" stroke="black"/>
<path d="M13.0996 308.343L20.4382 318.302H244.789V310.964H254.224V290.521H191.846V283.182H177.169V290.521H124.751V283.182H109.025V290.521H61.3245V285.279H39.833V308.343H13.0996Z" fill="#889C79" fill-opacity="0.71"/>
<path d="M773.165 712.489V602.411H465.469L462.848 605.556V612.894H450.267V606.08L366.398 605.556V612.894H353.818V606.08L351.721 604.507L352.245 602.411H36.1621V712.489H773.165Z" fill="#81A46B" fill-opacity="0.25"/>
<path d="M677.76 433.623H673.566" stroke="black" stroke-width="2"/>
<path d="M246.884 545.798V580.918H36.1618V354.995L19.9121 326.689L245.311 327.213L253.698 345.56C252.191 449.124 250.559 513.341 252.65 539.508H250.029V542.653L246.884 545.798Z" fill="#E0E8DA" stroke="black"/>
<path d="M228.537 271.649L234.303 284.754H574.499L580.789 271.649L575.023 271.125L581.837 255.4L582.362 253.303V246.489L559.297 245.964V227.094L252.126 226.045V245.964L226.965 246.489V253.303L227.489 255.4L234.303 271.125L228.537 271.649Z" fill="#ADC19E" fill-opacity="0.63" stroke="black"/>
<path d="M556.678 311.489V290.521H616.959V282.659H631.636V290.521H684.054V282.659H699.78V290.521H748.005V285.804H768.972V308.868H795.706L788.891 318.303H565.9V311.489H556.678Z" fill="#AAB89F" stroke="black"/>
<path d="M282.528 546.847V553.137V580.919H343.333V546.847L346.478 543.177V539.508H349.624C346.722 521.148 348.415 453.524 349.624 346.084L341.513 327.738H283.052L275.189 346.084C276.391 432.306 278.317 494.079 275.714 539.508H278.335V541.605H279.383V543.702L282.528 546.847Z" fill="#E0E8DA" stroke="black"/>
<path d="M434.017 327.738H379.501L371.639 345.686C373.33 450.863 374.256 509.47 371.639 539.508H374.784V541.605H375.832V543.702L378.977 546.847V580.919H435.589V546.847L438.734 543.177V539.344H441.879C438.554 516.191 439.489 458.997 441.879 345.56L434.017 327.738Z" fill="#E0E8DA" stroke="black"/>
<path d="M462.848 346.084L470.71 327.738H528.371L536.758 345.56C535.709 461.929 533.097 517.542 536.233 538.984L534.661 539.508H533.088V543.177L529.943 546.847V580.919H470.186V546.847L467.041 543.702V541.605H465.993V539.508H462.848C465.711 514.617 464.905 458.013 462.848 346.084Z" fill="#E0E8DA" stroke="black"/>
<path d="M418.818 375.963H394.705V433.623H418.818V375.963Z" fill="#E0E8DA"/>
<path d="M418.818 375.963H394.705V433.623H418.818V375.963Z" fill="#E0E8DA"/>
<path d="M418.818 375.963H394.705V433.623H418.818V375.963Z" fill="#E0E8DA"/>
<path d="M324.464 375.963H300.352V433.623H324.464V375.963Z" fill="#E0E8DA"/>
<path d="M324.464 375.963H300.352V433.623H324.464V375.963Z" fill="#E0E8DA"/>
<path d="M324.464 375.963H300.352V433.623H324.464V375.963Z" fill="#E0E8DA"/>
<path d="M36.6855 583.015V601.361H352.768V602.934L355.913 604.506L355.389 610.796H364.503V603.982H451.839V610.796H460.75V604.506L463.606 602.934V601.361H773.164L772.64 591.926V583.015H36.6855Z" fill="#A2B991" fill-opacity="0.88" stroke="black"/>
<path d="M429.824 624.426V712.489" stroke="black" stroke-width="2"/>
<path d="M436.641 617.087V712.488" stroke="black" stroke-width="2"/>
<path d="M384.742 624.426V712.489" stroke="black" stroke-width="2"/>
<path d="M377.928 617.087V712.488" stroke="black" stroke-width="2"/>
<path d="M406.236 197.216L407.809 95L409.381 197.216H406.236Z" fill="#78856F" stroke="black" stroke-width="2"/>
<path d="M432.446 200.704C425.455 198.651 417.597 197.74 409.394 197.74C401.099 197.74 393.023 198.827 385.27 200.885" stroke="black" stroke-width="2"/>
<path d="M251.076 245.965V224.998L560.345 226.046V245.965" stroke="black" stroke-width="2"/>
<path d="M609.618 296.287H566.635V302.577H609.618V296.287Z" stroke="black" stroke-width="2"/>
<path d="M679.86 296.287H636.877V302.577H679.86V296.287Z" stroke="black" stroke-width="2"/>
<path d="M745.905 296.287H702.922V302.577H745.905V296.287Z" stroke="black" stroke-width="2"/>
<path d="M763.728 292.093H753.244V302.576H763.728V292.093Z" stroke="black" stroke-width="2"/>
<path d="M628.49 288.948H620.104V302.577H628.49V288.948Z" stroke="black" stroke-width="2"/>
<path d="M696.633 288.948H688.246V302.577H696.633V288.948Z" stroke="black" stroke-width="2"/>
<path d="M189.223 288.948H180.836V302.577H189.223V288.948Z" stroke="black" stroke-width="2"/>
<path d="M240.59 295.238H197.607V301.528H240.59V295.238Z" stroke="black" stroke-width="2"/>
<path d="M172.45 295.238H129.467V301.528H172.45V295.238Z" stroke="black" stroke-width="2"/>
<path d="M770.018 308.867V284.754H746.954V289.472H700.826V281.609H683.003V289.472H632.682V281.609H615.908V289.472H557.199" stroke="black" stroke-width="2"/>
<path d="M550.908 292.093H537.279V305.722H550.908V292.093Z" stroke="black" stroke-width="2"/>
<path d="M245.834 319.351H19.3867" stroke="black" stroke-width="2"/>
<path d="M790.463 326.689L789.414 319.35L797.801 307.818H770.02" stroke="black" stroke-width="2"/>
<path d="M234.301 286.852L226.962 270.927L232.728 270.397L225.914 254.472V245.447L251.075 244.917" stroke="black" stroke-width="2"/>
<path d="M574.672 286.852L582.316 270.927L576.31 270.397L583.408 254.472V245.447L557.199 244.917" stroke="black" stroke-width="2"/>
<path d="M255.27 312.012V286.852" stroke="black" stroke-width="2"/>
<path d="M236.397 342.414H197.607V351.849H236.397V342.414Z" stroke="black" stroke-width="2"/>
<path d="M169.305 342.414H130.516V351.849H169.305V342.414Z" stroke="black" stroke-width="2"/>
<path d="M102.208 342.414H63.418V351.849H102.208V342.414Z" stroke="black" stroke-width="2"/>
<path d="M744.856 342.414H706.066V351.849H744.856V342.414Z" stroke="black" stroke-width="2"/>
<path d="M677.758 342.414H638.969V351.849H677.758V342.414Z" stroke="black" stroke-width="2"/>
<path d="M610.667 342.414H571.877V351.849H610.667V342.414Z" stroke="black" stroke-width="2"/>
<path d="M605.426 437.816V448.3" stroke="black" stroke-width="2"/>
<path d="M605.426 447.251H599.136" stroke="black" stroke-width="2"/>
<path d="M600.184 446.203V442.009" stroke="black" stroke-width="2"/>
<path d="M577.115 437.816V448.3" stroke="black" stroke-width="2"/>
<path d="M577.115 447.251H583.405" stroke="black" stroke-width="2"/>
<path d="M582.361 447.251V442.009" stroke="black" stroke-width="2"/>
<path d="M582.361 443.058H600.184" stroke="black" stroke-width="2"/>
<path d="M577.121 433.623H572.928" stroke="black" stroke-width="2"/>
<path d="M609.621 437.816H572.928" stroke="black" stroke-width="2"/>
<path d="M609.619 433.623H605.426" stroke="black" stroke-width="2"/>
<path d="M774.213 582.491V354.995" stroke="black" stroke-width="2"/>
<path d="M774.07 355.516L790.844 326.161" stroke="black" stroke-width="2"/>
<path d="M525.749 488.138H518.41" stroke="black" stroke-width="2"/>
<path d="M517.359 488.138V483.945" stroke="black" stroke-width="2"/>
<path d="M530.466 475.558L525.225 487.614" stroke="black" stroke-width="2"/>
<path d="M526.794 488.138H516.311" stroke="black" stroke-width="2"/>
<path d="M517.359 488.138V483.945" stroke="black" stroke-width="2"/>
<path d="M328.657 491.283H295.109V498.622H328.657V491.283Z" stroke="black" stroke-width="2"/>
<path d="M517.36 491.283H483.812V498.622H517.36V491.283Z" stroke="black" stroke-width="2"/>
<path d="M316.074 554.186H343.332" stroke="black" stroke-width="2"/>
<path d="M281.477 554.186H307.686" stroke="black" stroke-width="2"/>
<path d="M306.639 582.491V551.04" stroke="black" stroke-width="2"/>
<path d="M305.59 551.04H318.17" stroke="black" stroke-width="2"/>
<path d="M317.123 551.04V582.491" stroke="black" stroke-width="2"/>
<path d="M504.781 554.186H529.942" stroke="black" stroke-width="2"/>
<path d="M324.459 507.009V555.234" stroke="black" stroke-width="2"/>
<path d="M300.352 509.105V555.233" stroke="black" stroke-width="2"/>
<path d="M299.303 508.057H324.464" stroke="black" stroke-width="2"/>
<path d="M513.166 509.105V555.233" stroke="black" stroke-width="2"/>
<path d="M489.057 509.105V555.233" stroke="black" stroke-width="2"/>
<path d="M488.01 508.057H513.171" stroke="black" stroke-width="2"/>
<path d="M513.166 507.009V555.234" stroke="black" stroke-width="2"/>
<path d="M294.061 503.863H329.705" stroke="black" stroke-width="2"/>
<path d="M329.705 502.814V555.233" stroke="black" stroke-width="2"/>
<path d="M295.109 504.912V555.233" stroke="black" stroke-width="2"/>
<path d="M482.766 503.863H518.41" stroke="black" stroke-width="2"/>
<path d="M518.41 502.814V555.233" stroke="black" stroke-width="2"/>
<path d="M483.812 504.912V555.233" stroke="black" stroke-width="2"/>
<path d="M420.91 438.865V449.348" stroke="black" stroke-width="2"/>
<path d="M420.91 448.3H414.62" stroke="black" stroke-width="2"/>
<path d="M415.672 448.299V443.058" stroke="black" stroke-width="2"/>
<path d="M340.188 334.028H284.625V361.285H340.188V334.028Z" stroke="black" stroke-width="2"/>
<path d="M471.23 326.689H528.891" stroke="black" stroke-width="2"/>
<path d="M281.477 326.689V313.06" stroke="black" stroke-width="2"/>
<path d="M274.049 345.985L282.436 327.115" stroke="black" stroke-width="2"/>
<path d="M254.313 345.986L245.926 327.116" stroke="black" stroke-width="2"/>
<path d="M19.3906 325.641L282.531 326.689" stroke="black" stroke-width="2"/>
<path d="M245.834 326.689V310.964" stroke="black" stroke-width="2"/>
<path d="M245.834 312.013H282.527" stroke="black" stroke-width="2"/>
<path d="M377.928 326.689V313.06" stroke="black" stroke-width="2"/>
<path d="M370.498 345.985L378.885 327.115" stroke="black" stroke-width="2"/>
<path d="M350.764 345.986L342.377 327.116" stroke="black" stroke-width="2"/>
<path d="M342.285 326.689H378.978" stroke="black" stroke-width="2"/>
<path d="M342.285 326.689V310.964" stroke="black" stroke-width="2"/>
<path d="M342.285 312.013H378.978" stroke="black" stroke-width="2"/>
<path d="M565.586 326.689V313.06" stroke="black" stroke-width="2"/>
<path d="M557.109 345.985L565.496 327.115" stroke="black" stroke-width="2"/>
<path d="M537.371 345.986L528.984 327.116" stroke="black" stroke-width="2"/>
<path d="M528.889 326.689L789.936 325.668" stroke="black" stroke-width="2"/>
<path d="M528.895 326.689V310.964" stroke="black" stroke-width="2"/>
<path d="M528.895 312.013H566.636" stroke="black" stroke-width="2"/>
<path d="M470.184 326.689V313.06" stroke="black" stroke-width="2"/>
<path d="M462.756 345.985L471.143 327.115" stroke="black" stroke-width="2"/>
<path d="M377.928 546.847V582.491" stroke="black" stroke-width="2"/>
<path d="M346.785 544.009L343.64 547.154" stroke="black" stroke-width="2"/>
<path d="M374.475 544.009L377.62 547.154" stroke="black" stroke-width="2"/>
<path d="M374.787 541.604V543.701" stroke="black" stroke-width="2"/>
<path d="M537.278 541.604C533.697 524.812 535.395 453.124 537.278 344.511" stroke="black" stroke-width="2"/>
<path d="M536.23 344.511H558.246" stroke="black" stroke-width="2"/>
<path d="M557.199 541.604C560.78 524.812 559.082 453.124 557.199 344.511" stroke="black" stroke-width="2"/>
<path d="M533.09 540.556H561.396" stroke="black" stroke-width="2"/>
<path d="M462.848 541.604C466.429 524.812 464.731 453.124 462.848 344.511" stroke="black" stroke-width="2"/>
<path d="M442.924 541.604C439.343 524.812 441.042 453.124 442.924 344.511" stroke="black" stroke-width="2"/>
<path d="M442.928 344.511H462.847" stroke="black" stroke-width="2"/>
<path d="M438.732 540.556H467.038" stroke="black" stroke-width="2"/>
<path d="M389.459 503.863H425.103" stroke="black" stroke-width="2"/>
<path d="M384.219 623.377H430.347" stroke="black" stroke-width="2"/>
<path d="M376.879 617.087H437.684" stroke="black" stroke-width="2"/>
<path d="M425.105 502.814V555.233" stroke="black" stroke-width="2"/>
<path d="M390.51 504.912V555.233" stroke="black" stroke-width="2"/>
<path d="M420.389 508.581H408.857V527.451H420.389V508.581Z" stroke="black"/>
<path d="M420.389 530.597H408.857V544.225H420.389V530.597Z" stroke="black"/>
<path d="M420.389 548.418H408.857V555.757H420.389V548.418Z" stroke="black"/>
<path d="M405.71 508.581H394.178V527.451H405.71V508.581Z" stroke="black"/>
<path d="M403.616 628.095H387.891V646.966H403.616V628.095Z" stroke="black"/>
<path d="M147.816 621.805H137.332V646.966H147.816V621.805Z" stroke="black"/>
<path d="M147.816 654.304H137.332V672.126H147.816V654.304Z" stroke="black"/>
<path d="M147.816 675.271H137.332V693.094H147.816V675.271Z" stroke="black"/>
<path d="M163.536 654.304H153.053V672.126H163.536V654.304Z" stroke="black"/>
<path d="M163.536 675.271H153.053V693.094H163.536V675.271Z" stroke="black"/>
<path d="M163.536 621.805H153.053V646.966H163.536V621.805Z" stroke="black"/>
<path d="M403.616 672.126H387.891V690.997H403.616V672.126Z" stroke="black"/>
<path d="M403.616 650.111H387.891V668.981H403.616V650.111Z" stroke="black"/>
<path d="M426.679 628.095H410.953V646.966H426.679V628.095Z" stroke="black"/>
<path d="M426.679 672.126H410.953V690.997H426.679V672.126Z" stroke="black"/>
<path d="M426.679 650.111H410.953V668.981H426.679V650.111Z" stroke="black"/>
<path d="M405.71 530.597H394.178V544.225H405.71V530.597Z" stroke="black"/>
<path d="M405.71 548.418H394.178V555.757H405.71V548.418Z" stroke="black"/>
<path d="M370.592 541.604C374.173 524.812 372.475 453.124 370.592 344.511" stroke="black" stroke-width="2"/>
<path d="M350.671 541.604C347.089 524.812 348.788 453.124 350.671 344.511" stroke="black" stroke-width="2"/>
<path d="M350.672 344.511H370.591" stroke="black" stroke-width="2"/>
<path d="M346.479 540.556H374.784" stroke="black" stroke-width="2"/>
<path d="M274.141 541.604C277.722 524.812 276.023 453.124 274.141 344.511" stroke="black" stroke-width="2"/>
<path d="M254.221 541.604C250.64 524.812 252.338 453.124 254.221 344.511" stroke="black" stroke-width="2"/>
<path d="M254.221 344.511H274.14" stroke="black" stroke-width="2"/>
<path d="M250.027 540.556H278.333" stroke="black" stroke-width="2"/>
<path d="M347.525 541.604V543.701" stroke="black" stroke-width="2"/>
<path d="M346.479 543.702H374.784" stroke="black" stroke-width="2"/>
<path d="M344.379 546.847H376.878" stroke="black" stroke-width="2"/>
<path d="M36.1621 581.965H774.213" stroke="black" stroke-width="2"/>
<path d="M344.379 546.847V582.491" stroke="black" stroke-width="2"/>
<path d="M364.299 554.186H356.96C355.802 554.186 354.863 555.124 354.863 556.282V575.153C354.863 576.311 355.802 577.25 356.96 577.25H364.299C365.457 577.25 366.395 576.311 366.395 575.153V556.282C366.395 555.124 365.457 554.186 364.299 554.186Z" fill="#D9D9D9" stroke="black" stroke-width="2"/>
<path d="M564.541 546.847V582.491" stroke="black" stroke-width="2"/>
<path d="M533.395 544.009L530.249 547.154" stroke="black" stroke-width="2"/>
<path d="M561.088 544.009L564.233 547.154" stroke="black" stroke-width="2"/>
<path d="M561.393 541.604V543.701" stroke="black" stroke-width="2"/>
<path d="M534.135 541.604V543.701" stroke="black" stroke-width="2"/>
<path d="M533.09 543.702H561.396" stroke="black" stroke-width="2"/>
<path d="M530.99 546.847H563.49" stroke="black" stroke-width="2"/>
<path d="M530.99 546.847V582.491" stroke="black" stroke-width="2"/>
<path d="M550.91 554.186H543.571C542.413 554.186 541.475 555.124 541.475 556.282V575.153C541.475 576.311 542.413 577.25 543.571 577.25H550.91C552.068 577.25 553.007 576.311 553.007 575.153V556.282C553.007 555.124 552.068 554.186 550.91 554.186Z" fill="#D9D9D9" stroke="black" stroke-width="2"/>
<path d="M281.477 546.847V582.491" stroke="black" stroke-width="2"/>
<path d="M250.338 544.009L247.193 547.154" stroke="black" stroke-width="2"/>
<path d="M278.025 544.009L281.17 547.154" stroke="black" stroke-width="2"/>
<path d="M278.336 541.604V543.701" stroke="black" stroke-width="2"/>
<path d="M251.076 541.604V543.701" stroke="black" stroke-width="2"/>
<path d="M250.027 543.702H278.333" stroke="black" stroke-width="2"/>
<path d="M247.934 546.847H280.433" stroke="black" stroke-width="2"/>
<path d="M247.934 546.847V582.491" stroke="black" stroke-width="2"/>
<path d="M267.853 554.186H260.515C259.357 554.186 258.418 555.124 258.418 556.282V575.153C258.418 576.311 259.357 577.25 260.515 577.25H267.853C269.011 577.25 269.95 576.311 269.95 575.153V556.282C269.95 555.124 269.011 554.186 267.853 554.186Z" fill="#D9D9D9" stroke="black" stroke-width="2"/>
<path d="M470.184 546.847V582.491" stroke="black" stroke-width="2"/>
<path d="M439.041 544.009L435.896 547.154" stroke="black" stroke-width="2"/>
<path d="M466.734 544.009L469.879 547.154" stroke="black" stroke-width="2"/>
<path d="M467.041 541.604V543.701" stroke="black" stroke-width="2"/>
<path d="M439.781 541.604V543.701" stroke="black" stroke-width="2"/>
<path d="M438.732 543.702H467.038" stroke="black" stroke-width="2"/>
<path d="M436.641 546.847H469.14" stroke="black" stroke-width="2"/>
<path d="M436.641 546.847V582.491" stroke="black" stroke-width="2"/>
<path d="M456.556 554.186H449.218C448.06 554.186 447.121 555.124 447.121 556.282V575.153C447.121 576.311 448.06 577.25 449.218 577.25H456.556C457.714 577.25 458.653 576.311 458.653 575.153V556.282C458.653 555.124 457.714 554.186 456.556 554.186Z" fill="#D9D9D9" stroke="black" stroke-width="2"/>
<path d="M443.018 345.986L434.631 327.116" stroke="black" stroke-width="2"/>
<path d="M434.541 326.689H471.234" stroke="black" stroke-width="2"/>
<path d="M434.541 326.689V310.964" stroke="black" stroke-width="2"/>
<path d="M434.541 312.013H471.234" stroke="black" stroke-width="2"/>
<path d="M282.525 326.689H342.282" stroke="black" stroke-width="2"/>
<path d="M378.977 326.689H434.54" stroke="black" stroke-width="2"/>
<path d="M434.54 334.028H378.977V361.285H434.54V334.028Z" stroke="black" stroke-width="2"/>
<path d="M527.843 334.028H472.279V361.285H527.843V334.028Z" stroke="black" stroke-width="2"/>
<path d="M419.863 374.914H393.654V434.671H419.863V374.914Z" stroke="black" stroke-width="2"/>
<path d="M424.055 370.72H389.459V434.67H424.055V370.72Z" stroke="black" stroke-width="2"/>
<path d="M392.607 438.865V449.348" stroke="black" stroke-width="2"/>
<path d="M392.607 448.3H398.898" stroke="black" stroke-width="2"/>
<path d="M397.848 448.299V443.058" stroke="black" stroke-width="2"/>
<path d="M397.848 444.106H415.67" stroke="black" stroke-width="2"/>
<path d="M425.117 433.625L425.105 440.964" stroke="black" stroke-width="2"/>
<path d="M426.152 439.913H420.91" stroke="black" stroke-width="2"/>
<path d="M421.961 438.865H391.559" stroke="black" stroke-width="2"/>
<path d="M388.412 433.623V440.962" stroke="black" stroke-width="2"/>
<path d="M388.412 439.913H391.557" stroke="black" stroke-width="2"/>
<path d="M326.559 438.865V449.348" stroke="black" stroke-width="2"/>
<path d="M326.559 448.3H320.268" stroke="black" stroke-width="2"/>
<path d="M321.318 448.299V443.058" stroke="black" stroke-width="2"/>
<path d="M325.512 374.914H299.303V434.671H325.512V374.914Z" stroke="black" stroke-width="2"/>
<path d="M329.706 370.72H295.109V434.67H329.706V370.72Z" stroke="black" stroke-width="2"/>
<path d="M298.254 438.865V449.348" stroke="black" stroke-width="2"/>
<path d="M298.254 448.3H304.544" stroke="black" stroke-width="2"/>
<path d="M303.494 448.299V443.058" stroke="black" stroke-width="2"/>
<path d="M303.494 444.106H321.316" stroke="black" stroke-width="2"/>
<path d="M330.754 433.623V440.962" stroke="black" stroke-width="2"/>
<path d="M331.8 439.913H326.559" stroke="black" stroke-width="2"/>
<path d="M327.606 438.865H297.203" stroke="black" stroke-width="2"/>
<path d="M294.061 433.623V440.962" stroke="black" stroke-width="2"/>
<path d="M294.061 439.913H297.206" stroke="black" stroke-width="2"/>
<path d="M514.217 438.865V449.348" stroke="black" stroke-width="2"/>
<path d="M514.217 448.3H507.927" stroke="black" stroke-width="2"/>
<path d="M508.975 448.299V443.058" stroke="black" stroke-width="2"/>
<path d="M513.17 374.914H486.961V434.671H513.17V374.914Z" stroke="black" stroke-width="2"/>
<path d="M517.362 370.72H482.766V434.67H517.362V370.72Z" stroke="black" stroke-width="2"/>
<path d="M485.91 438.865V449.348" stroke="black" stroke-width="2"/>
<path d="M485.91 448.3H492.2" stroke="black" stroke-width="2"/>
<path d="M491.15 448.299V443.058" stroke="black" stroke-width="2"/>
<path d="M491.15 444.106H508.973" stroke="black" stroke-width="2"/>
<path d="M518.41 433.623V440.962" stroke="black" stroke-width="2"/>
<path d="M519.459 439.913H514.217" stroke="black" stroke-width="2"/>
<path d="M515.264 438.865H484.861" stroke="black" stroke-width="2"/>
<path d="M481.715 433.623V440.962" stroke="black" stroke-width="2"/>
<path d="M481.715 439.913H484.86" stroke="black" stroke-width="2"/>
<path d="M435.587 556.282H376.879" stroke="black" stroke-width="2"/>
<path d="M489.057 509.105V555.233" stroke="black" stroke-width="2"/>
<path d="M488.01 508.057H513.171" stroke="black" stroke-width="2"/>
<path d="M470.184 554.186H496.393" stroke="black" stroke-width="2"/>
<path d="M495.346 582.491V551.04" stroke="black" stroke-width="2"/>
<path d="M494.297 551.04H506.877" stroke="black" stroke-width="2"/>
<path d="M505.83 551.04V582.491" stroke="black" stroke-width="2"/>
<path d="M424.058 491.283H390.51V498.622H424.058V491.283Z" stroke="black" stroke-width="2"/>
<path d="M506.559 476.606H491.469L499.014 471.575L506.559 476.606Z" stroke="black" stroke-width="2"/>
<path d="M469.139 475.033L499.541 461.929L530.992 475.557" stroke="black" stroke-width="2"/>
<path d="M469.662 475.034L474.864 487.937" stroke="black" stroke-width="2"/>
<path d="M482.765 488.138H473.33" stroke="black" stroke-width="2"/>
<path d="M481.715 488.138V483.945" stroke="black" stroke-width="2"/>
<path d="M526.797 484.992H473.33" stroke="black" stroke-width="2"/>
<path d="M470.184 476.605H528.892" stroke="black" stroke-width="2"/>
<path d="M338.092 487.089H330.754" stroke="black" stroke-width="2"/>
<path d="M329.705 487.089V482.896" stroke="black" stroke-width="2"/>
<path d="M342.81 474.509L337.568 486.565" stroke="black" stroke-width="2"/>
<path d="M339.138 487.089H328.654" stroke="black" stroke-width="2"/>
<path d="M329.705 487.089V482.896" stroke="black" stroke-width="2"/>
<path d="M318.903 475.557H303.812L311.358 470.526L318.903 475.557Z" stroke="black" stroke-width="2"/>
<path d="M281.477 473.984L311.879 460.88L343.33 474.509" stroke="black" stroke-width="2"/>
<path d="M282.004 473.985L287.206 486.888" stroke="black" stroke-width="2"/>
<path d="M295.109 487.089H285.674" stroke="black" stroke-width="2"/>
<path d="M294.061 487.089V482.896" stroke="black" stroke-width="2"/>
<path d="M339.141 483.945H285.674" stroke="black" stroke-width="2"/>
<path d="M282.525 475.558H341.234" stroke="black" stroke-width="2"/>
<path d="M432.444 487.089H425.105" stroke="black" stroke-width="2"/>
<path d="M424.057 487.089V482.896" stroke="black" stroke-width="2"/>
<path d="M437.162 474.509L431.92 486.565" stroke="black" stroke-width="2"/>
<path d="M433.491 487.089H423.008" stroke="black" stroke-width="2"/>
<path d="M424.057 487.089V482.896" stroke="black" stroke-width="2"/>
<path d="M413.254 475.557H398.164L405.709 470.526L413.254 475.557Z" stroke="black" stroke-width="2"/>
<path d="M375.828 473.984L406.231 460.88L437.682 474.509" stroke="black" stroke-width="2"/>
<path d="M376.355 473.985L381.557 486.888" stroke="black" stroke-width="2"/>
<path d="M389.459 487.089H380.023" stroke="black" stroke-width="2"/>
<path d="M388.412 487.089V482.896" stroke="black" stroke-width="2"/>
<path d="M433.49 483.945H380.023" stroke="black" stroke-width="2"/>
<path d="M376.879 475.558H435.587" stroke="black" stroke-width="2"/>
<path d="M35.1133 582.49V354.995" stroke="black" stroke-width="2"/>
<path d="M35.2485 355.515L18.4746 326.161" stroke="black" stroke-width="2"/>
<path d="M604.373 379.107H578.164V433.622H604.373V379.107Z" stroke="black" stroke-width="2"/>
<path d="M231.156 437.816V448.3" stroke="black" stroke-width="2"/>
<path d="M231.156 447.251H224.866" stroke="black" stroke-width="2"/>
<path d="M225.914 447.251V442.009" stroke="black" stroke-width="2"/>
<path d="M202.852 437.816V448.3" stroke="black" stroke-width="2"/>
<path d="M202.852 447.251H209.142" stroke="black" stroke-width="2"/>
<path d="M208.094 447.251V442.009" stroke="black" stroke-width="2"/>
<path d="M208.094 443.058H225.916" stroke="black" stroke-width="2"/>
<path d="M202.852 433.623H198.658" stroke="black" stroke-width="2"/>
<path d="M235.351 437.816H198.658" stroke="black" stroke-width="2"/>
<path d="M235.35 433.623H231.156" stroke="black" stroke-width="2"/>
<path d="M230.11 379.107H203.9V433.622H230.11V379.107Z" stroke="black" stroke-width="2"/>
<path d="M96.9668 568.862V579.345" stroke="black" stroke-width="2"/>
<path d="M96.9668 578.298H90.6766" stroke="black" stroke-width="2"/>
<path d="M91.7246 578.298V573.056" stroke="black" stroke-width="2"/>
<path d="M68.6641 568.862V579.345" stroke="black" stroke-width="2"/>
<path d="M68.6641 578.298H74.9543" stroke="black" stroke-width="2"/>
<path d="M73.9023 578.298V573.056" stroke="black" stroke-width="2"/>
<path d="M73.9023 574.104H91.7246" stroke="black" stroke-width="2"/>
<path d="M68.6622 564.669H64.4688" stroke="black" stroke-width="2"/>
<path d="M101.162 568.862H64.4688" stroke="black" stroke-width="2"/>
<path d="M101.16 564.669H96.9668" stroke="black" stroke-width="2"/>
<path d="M95.9143 510.154H69.7051V564.669H95.9143V510.154Z" stroke="black" stroke-width="2"/>
<path d="M164.059 568.862V579.345" stroke="black" stroke-width="2"/>
<path d="M164.059 578.298H157.768" stroke="black" stroke-width="2"/>
<path d="M158.82 578.298V573.056" stroke="black" stroke-width="2"/>
<path d="M135.754 568.862V579.345" stroke="black" stroke-width="2"/>
<path d="M135.754 578.298H142.044" stroke="black" stroke-width="2"/>
<path d="M141 578.298V573.056" stroke="black" stroke-width="2"/>
<path d="M141 574.104H158.822" stroke="black" stroke-width="2"/>
<path d="M135.758 564.669H131.564" stroke="black" stroke-width="2"/>
<path d="M168.257 568.862H131.564" stroke="black" stroke-width="2"/>
<path d="M168.252 564.669H164.059" stroke="black" stroke-width="2"/>
<path d="M163.014 510.154H136.805V564.669H163.014V510.154Z" stroke="black" stroke-width="2"/>
<path d="M100.113 619.184H64.4688V684.182H100.113V619.184Z" stroke="black" stroke-width="2"/>
<path d="M234.303 619.184H198.658V684.182H234.303V619.184Z" stroke="black" stroke-width="2"/>
<path d="M328.654 619.184H293.01V684.182H328.654V619.184Z" stroke="black" stroke-width="2"/>
<path d="M231.156 568.862V579.345" stroke="black" stroke-width="2"/>
<path d="M231.156 578.298H224.866" stroke="black" stroke-width="2"/>
<path d="M225.914 578.298V573.056" stroke="black" stroke-width="2"/>
<path d="M202.852 568.862V579.345" stroke="black" stroke-width="2"/>
<path d="M202.852 578.298H209.142" stroke="black" stroke-width="2"/>
<path d="M208.094 578.298V573.056" stroke="black" stroke-width="2"/>
<path d="M208.094 574.104H225.916" stroke="black" stroke-width="2"/>
<path d="M202.852 564.669H198.658" stroke="black" stroke-width="2"/>
<path d="M235.351 568.862H198.658" stroke="black" stroke-width="2"/>
<path d="M235.35 564.669H231.156" stroke="black" stroke-width="2"/>
<path d="M230.11 510.154H203.9V564.669H230.11V510.154Z" stroke="black" stroke-width="2"/>
<path d="M96.9668 437.816V448.3" stroke="black" stroke-width="2"/>
<path d="M96.9668 447.251H90.6766" stroke="black" stroke-width="2"/>
<path d="M91.7246 447.251V442.009" stroke="black" stroke-width="2"/>
<path d="M68.6641 437.816V448.3" stroke="black" stroke-width="2"/>
<path d="M68.6641 447.251H74.9543" stroke="black" stroke-width="2"/>
<path d="M73.9023 447.251V442.009" stroke="black" stroke-width="2"/>
<path d="M73.9023 443.058H91.7246" stroke="black" stroke-width="2"/>
<path d="M68.6622 433.623H64.4688" stroke="black" stroke-width="2"/>
<path d="M101.162 437.816H64.4688" stroke="black" stroke-width="2"/>
<path d="M101.16 433.623H96.9668" stroke="black" stroke-width="2"/>
<path d="M95.9143 379.107H69.7051V433.622H95.9143V379.107Z" stroke="black" stroke-width="2"/>
<path d="M164.059 437.816V448.3" stroke="black" stroke-width="2"/>
<path d="M164.059 447.251H157.768" stroke="black" stroke-width="2"/>
<path d="M158.82 446.727V442.009" stroke="black" stroke-width="2"/>
<path d="M135.754 437.816V448.3" stroke="black" stroke-width="2"/>
<path d="M135.754 447.251H142.044" stroke="black" stroke-width="2"/>
<path d="M141 447.251V442.009" stroke="black" stroke-width="2"/>
<path d="M141 443.058H158.822" stroke="black" stroke-width="2"/>
<path d="M135.758 433.623H131.564" stroke="black" stroke-width="2"/>
<path d="M168.257 437.816H131.564" stroke="black" stroke-width="2"/>
<path d="M168.252 433.623H164.059" stroke="black" stroke-width="2"/>
<path d="M163.014 379.107H136.805V433.622H163.014V379.107Z" stroke="black" stroke-width="2"/>
<path d="M740.664 568.862V579.345" stroke="black" stroke-width="2"/>
<path d="M740.664 578.298H734.374" stroke="black" stroke-width="2"/>
<path d="M735.42 577.774V573.056" stroke="black" stroke-width="2"/>
<path d="M712.359 568.862V579.345" stroke="black" stroke-width="2"/>
<path d="M712.359 578.298H718.65" stroke="black" stroke-width="2"/>
<path d="M717.602 578.298V573.056" stroke="black" stroke-width="2"/>
<path d="M717.602 574.104H735.424" stroke="black" stroke-width="2"/>
<path d="M712.359 564.669H708.166" stroke="black" stroke-width="2"/>
<path d="M744.859 568.862H708.166" stroke="black" stroke-width="2"/>
<path d="M744.858 564.669H740.664" stroke="black" stroke-width="2"/>
<path d="M739.615 510.154H713.406V564.669H739.615V510.154Z" stroke="black" stroke-width="2"/>
<path d="M673.566 568.862V579.345" stroke="black" stroke-width="2"/>
<path d="M673.566 578.298H667.276" stroke="black" stroke-width="2"/>
<path d="M668.326 578.298V573.056" stroke="black" stroke-width="2"/>
<path d="M645.264 568.862V579.345" stroke="black" stroke-width="2"/>
<path d="M645.264 578.298H651.554" stroke="black" stroke-width="2"/>
<path d="M650.502 578.298V573.056" stroke="black" stroke-width="2"/>
<path d="M650.502 574.104H668.324" stroke="black" stroke-width="2"/>
<path d="M645.262 564.669H641.068" stroke="black" stroke-width="2"/>
<path d="M677.761 568.862H641.068" stroke="black" stroke-width="2"/>
<path d="M677.76 564.669H673.566" stroke="black" stroke-width="2"/>
<path d="M672.522 510.154H646.312V564.669H672.522V510.154Z" stroke="black" stroke-width="2"/>
<path d="M605.426 568.862V579.345" stroke="black" stroke-width="2"/>
<path d="M605.426 578.298H599.136" stroke="black" stroke-width="2"/>
<path d="M600.184 578.298V573.056" stroke="black" stroke-width="2"/>
<path d="M577.115 568.862V579.345" stroke="black" stroke-width="2"/>
<path d="M577.115 578.298H583.405" stroke="black" stroke-width="2"/>
<path d="M582.361 578.298V573.056" stroke="black" stroke-width="2"/>
<path d="M582.361 574.104H600.184" stroke="black" stroke-width="2"/>
<path d="M577.121 564.669H572.928" stroke="black" stroke-width="2"/>
<path d="M609.621 568.862H572.928" stroke="black" stroke-width="2"/>
<path d="M609.619 564.669H605.426" stroke="black" stroke-width="2"/>
<path d="M604.373 510.154H578.164V564.669H604.373V510.154Z" stroke="black" stroke-width="2"/>
<path d="M740.664 437.816V448.3" stroke="black" stroke-width="2"/>
<path d="M740.664 447.251H734.374" stroke="black" stroke-width="2"/>
<path d="M735.42 447.251V442.009" stroke="black" stroke-width="2"/>
<path d="M712.359 437.816V448.3" stroke="black" stroke-width="2"/>
<path d="M712.359 447.251H718.65" stroke="black" stroke-width="2"/>
<path d="M717.602 447.251V442.009" stroke="black" stroke-width="2"/>
<path d="M717.602 443.058H735.424" stroke="black" stroke-width="2"/>
<path d="M712.359 433.623H708.166" stroke="black" stroke-width="2"/>
<path d="M744.859 437.816H708.166" stroke="black" stroke-width="2"/>
<path d="M744.858 433.623H740.664" stroke="black" stroke-width="2"/>
<path d="M739.615 379.107H713.406V433.622H739.615V379.107Z" stroke="black" stroke-width="2"/>
<path d="M673.566 437.816V448.3" stroke="black" stroke-width="2"/>
<path d="M673.566 447.251H667.276" stroke="black" stroke-width="2"/>
<path d="M668.326 447.251V442.009" stroke="black" stroke-width="2"/>
<path d="M645.264 437.816V448.3" stroke="black" stroke-width="2"/>
<path d="M645.264 447.251H651.554" stroke="black" stroke-width="2"/>
<path d="M650.502 447.251V442.009" stroke="black" stroke-width="2"/>
<path d="M650.502 443.058H668.324" stroke="black" stroke-width="2"/>
<path d="M645.262 433.623H641.068" stroke="black" stroke-width="2"/>
<path d="M677.761 437.816H641.068" stroke="black" stroke-width="2"/>
<path d="M672.522 379.107H646.312V433.622H672.522V379.107Z" stroke="black" stroke-width="2"/>
<path d="M610.667 370.72H571.877V581.442H610.667V370.72Z" stroke="black" stroke-width="2"/>
<path d="M236.397 370.72H197.607V581.442H236.397V370.72Z" stroke="black" stroke-width="2"/>
<path d="M102.208 370.72H63.418V581.442H102.208V370.72Z" stroke="black" stroke-width="2"/>
<path d="M169.305 370.72H130.516V581.442H169.305V370.72Z" stroke="black" stroke-width="2"/>
<path d="M678.807 370.72H640.018V581.442H678.807V370.72Z" stroke="black" stroke-width="2"/>
<path d="M745.907 370.72H707.117V581.442H745.907V370.72Z" stroke="black" stroke-width="2"/>
<path d="M556.15 312.012V286.852" stroke="black" stroke-width="2"/>
<path d="M234.305 285.803H575.024" stroke="black" stroke-width="2"/>
<path d="M232.205 270.078H577.118" stroke="black" stroke-width="2"/>
<path d="M251.076 244.917H558.248" stroke="black" stroke-width="2"/>
<path d="M225.914 254.352H583.407" stroke="black" stroke-width="2"/>
<path d="M18.8628 326.69L19.3869 318.827L11 307.295H38.7817" stroke="black" stroke-width="2"/>
<path d="M789.937 319.351H565.586" stroke="black" stroke-width="2"/>
<path d="M275.187 292.093H261.559V305.722H275.187V292.093Z" stroke="black" stroke-width="2"/>
<path d="M527.844 292.093H283.574V305.722H527.844V292.093Z" fill="#AAB89F" stroke="black" stroke-width="2"/>
<path d="M38.7832 308.343V284.231H62.3715V289.472H107.975V282.134H125.798V289.472H176.119V282.134H192.893V289.472H255.271" stroke="black" stroke-width="2"/>
<path d="M56.0813 291.045H45.5977V301.529H56.0813V291.045Z" stroke="black" stroke-width="2"/>
<path d="M106.401 295.238H63.418V301.528H106.401V295.238Z" stroke="black" stroke-width="2"/>
<path d="M121.076 287.9H112.689V301.529H121.076V287.9Z" stroke="black" stroke-width="2"/>
<path d="M469.664 225.521C451.716 213.508 433.652 206.126 408.859 206.126C384.066 206.126 361.284 213.312 343.336 225.326" stroke="black" stroke-width="2"/>
<path d="M386.314 199.836V208.223" stroke="black" stroke-width="2"/>
<path d="M431.393 199.836V208.223" stroke="black" stroke-width="2"/>
<path d="M35.6348 582.491V590.878H773.686V583.015" stroke="black" stroke-width="2"/>
<path d="M408.331 605.031H365.585V611.845H354.681V605.293L352.063 603.545V599.178L348.574 594.809V582.491H408.855" stroke="black" stroke-width="2"/>
<path d="M408.33 605.031H451.076V611.845H461.98V605.153L464.598 603.369V598.908L468.087 594.446V582.491H408.33" stroke="black" stroke-width="2"/>
<path d="M35.1133 713.013H774.213" stroke="black" stroke-width="2"/>
<path d="M774.21 602.409H464.941" stroke="black" stroke-width="2"/>
<path d="M351.72 602.409H36.1602" stroke="black" stroke-width="2"/>
<path d="M35.6348 591.402V712.489" stroke="black" stroke-width="2"/>
<path d="M773.686 591.402C774.524 598.531 774.032 675.097 773.686 712.489" stroke="black" stroke-width="2"/>
<path d="M407.283 624.426V712.489" stroke="black" stroke-width="2"/>
<path d="M36.1621 685.167H128.418" stroke="black" stroke-width="2"/>
<path d="M172.451 685.167H377.931" stroke="black" stroke-width="2"/>
<path d="M436.633 684.678H635.824" stroke="black" stroke-width="2"/>
<path d="M679.861 684.678H774.214" stroke="black" stroke-width="2"/>
<path d="M166.158 619.184H134.707V712.488H166.158V619.184Z" stroke="black" stroke-width="2"/>
<path d="M171.402 613.942H129.467V712.489H171.402V613.942Z" stroke="black" stroke-width="2"/>
<path d="M150.432 619.184V712.488" stroke="black" stroke-width="2"/>
<path d="M660.464 621.805H670.947V646.966H660.464V621.805Z" stroke="black"/>
<path d="M660.464 654.304H670.947V672.126H660.464V654.304Z" stroke="black"/>
<path d="M660.464 675.271H670.947V693.094H660.464V675.271Z" stroke="black"/>
<path d="M644.737 654.304H655.221V672.126H644.737V654.304Z" stroke="black"/>
<path d="M644.737 675.271H655.221V693.094H644.737V675.271Z" stroke="black"/>
<path d="M644.737 621.805H655.221V646.966H644.737V621.805Z" stroke="black"/>
<path d="M708.164 619.184H743.809V684.182H708.164V619.184Z" stroke="black" stroke-width="2"/>
<path d="M573.973 619.184H609.617V684.182H573.973V619.184Z" stroke="black" stroke-width="2"/>
<path d="M479.621 619.184H515.266V684.182H479.621V619.184Z" stroke="black" stroke-width="2"/>
<path d="M642.115 619.184H673.566V712.488H642.115V619.184Z" stroke="black" stroke-width="2"/>
<path d="M636.876 613.942H678.811V712.489H636.876V613.942Z" stroke="black" stroke-width="2"/>
<path d="M657.844 619.184V712.488" stroke="black" stroke-width="2"/>
<path d="M241.641 582.491V587.208L244.786 590.878V594.547L247.931 599.265L247.407 712.488" stroke="black" stroke-width="2"/>
<path d="M567.683 582.491V587.208L564.538 590.878V594.547L561.393 599.265L561.917 712.488" stroke="black" stroke-width="2"/>
<path d="M279.382 627.57H259.463V673.698H279.382V627.57Z" stroke="black" stroke-width="2"/>
<path d="M549.862 627.57H529.943V673.698H549.862V627.57Z" stroke="black" stroke-width="2"/>
<path d="M352.242 599.265H464.093" stroke="black" stroke-width="2"/>
<path d="M44.5488 685.231V713.013" stroke="black" stroke-width="2"/>
<path d="M56.082 685.231V713.013" stroke="black" stroke-width="2"/>
<path d="M66.5645 685.231V713.013" stroke="black" stroke-width="2"/>
<path d="M77.0469 685.231V713.013" stroke="black" stroke-width="2"/>
<path d="M87.5312 685.231V713.013" stroke="black" stroke-width="2"/>
<path d="M118.982 685.231V713.013" stroke="black" stroke-width="2"/>
<path d="M108.498 685.231V713.013" stroke="black" stroke-width="2"/>
<path d="M98.0156 685.231V713.013" stroke="black" stroke-width="2"/>
<path d="M255.27 685.231V713.013" stroke="black" stroke-width="2"/>
<path d="M266.803 685.231V713.013" stroke="black" stroke-width="2"/>
<path d="M277.285 685.231V713.013" stroke="black" stroke-width="2"/>
<path d="M287.768 685.231V713.013" stroke="black" stroke-width="2"/>
<path d="M298.254 685.231V713.013" stroke="black" stroke-width="2"/>
<path d="M329.705 685.231V713.013" stroke="black" stroke-width="2"/>
<path d="M319.223 685.231V713.013" stroke="black" stroke-width="2"/>
<path d="M308.738 685.231V713.013" stroke="black" stroke-width="2"/>
<path d="M340.189 685.231V713.013" stroke="black" stroke-width="2"/>
<path d="M371.639 685.231V713.013" stroke="black" stroke-width="2"/>
<path d="M361.156 685.231V713.013" stroke="black" stroke-width="2"/>
<path d="M350.672 685.231V713.013" stroke="black" stroke-width="2"/>
<path d="M446.074 685.231V713.013" stroke="black" stroke-width="2"/>
<path d="M457.605 685.231V713.013" stroke="black" stroke-width="2"/>
<path d="M468.09 685.231V713.013" stroke="black" stroke-width="2"/>
<path d="M478.574 685.231V713.013" stroke="black" stroke-width="2"/>
<path d="M489.057 685.231V713.013" stroke="black" stroke-width="2"/>
<path d="M520.508 685.231V713.013" stroke="black" stroke-width="2"/>
<path d="M510.023 685.231V713.013" stroke="black" stroke-width="2"/>
<path d="M499.539 685.231V713.013" stroke="black" stroke-width="2"/>
<path d="M530.99 685.231V713.013" stroke="black" stroke-width="2"/>
<path d="M551.957 685.231V713.013" stroke="black" stroke-width="2"/>
<path d="M541.475 685.231V713.013" stroke="black" stroke-width="2"/>
<path d="M567.68 685.231V713.013" stroke="black" stroke-width="2"/>
<path d="M599.133 685.231V713.013" stroke="black" stroke-width="2"/>
<path d="M588.648 685.231V713.013" stroke="black" stroke-width="2"/>
<path d="M578.164 685.231V713.013" stroke="black" stroke-width="2"/>
<path d="M609.617 685.231V713.013" stroke="black" stroke-width="2"/>
<path d="M630.584 685.231V713.013" stroke="black" stroke-width="2"/>
<path d="M620.104 685.231V713.013" stroke="black" stroke-width="2"/>
<path d="M689.295 685.231V713.013" stroke="black" stroke-width="2"/>
<path d="M720.746 685.231V713.013" stroke="black" stroke-width="2"/>
<path d="M710.264 685.231V713.013" stroke="black" stroke-width="2"/>
<path d="M699.779 685.231V713.013" stroke="black" stroke-width="2"/>
<path d="M731.23 685.231V713.013" stroke="black" stroke-width="2"/>
<path d="M741.715 685.231V713.013" stroke="black" stroke-width="2"/>
<path d="M752.199 685.231V713.013" stroke="black" stroke-width="2"/>
<path d="M762.68 685.231V713.013" stroke="black" stroke-width="2"/>
<path d="M178.738 685.231V713.013" stroke="black" stroke-width="2"/>
<path d="M190.271 685.231V713.013" stroke="black" stroke-width="2"/>
<path d="M200.754 685.231V713.013" stroke="black" stroke-width="2"/>
<path d="M211.236 685.231V713.013" stroke="black" stroke-width="2"/>
<path d="M221.721 685.231V713.013" stroke="black" stroke-width="2"/>
<path d="M242.689 685.231V713.013" stroke="black" stroke-width="2"/>
<path d="M232.205 685.231V713.013" stroke="black" stroke-width="2"/>
<path d="M514.214 620.233H480.666V683.135H514.214V620.233Z" fill="#E0E8DA"/>
<path d="M608.571 620.233H575.023V683.135H608.571V620.233Z" fill="#E0E8DA"/>
<path d="M327.608 620.233H294.061V683.135H327.608V620.233Z" fill="#E0E8DA"/>
<path d="M233.253 620.233H199.705V683.135H233.253V620.233Z" fill="#E0E8DA"/>
<path d="M99.0653 620.233H65.5176V683.135H99.0653V620.233Z" fill="#E0E8DA"/>
<path d="M742.761 620.233H709.213V683.135H742.761V620.233Z" fill="#E0E8DA"/>
<path d="M512.122 375.963H488.01V433.623H512.122V375.963Z" fill="#E0E8DA"/>
<path d="M512.122 375.963H488.01V433.623H512.122V375.963Z" fill="#E0E8DA"/>
<path d="M512.122 375.963H488.01V433.623H512.122V375.963Z" fill="#E0E8DA"/>
<path d="M490.104 509.105V553.136H494.297V549.991H506.877V553.136H512.119V509.105H511.595H490.104Z" fill="#E0E8DA" stroke="black"/>
<path d="M301.396 509.105V553.136H305.59V549.991H318.17V553.136H323.412V509.105H322.888H301.396Z" fill="#E0E8DA" stroke="black"/>
<path d="M55.0334 292.093H46.6465V300.48H55.0334V292.093Z" fill="#E0E8DA"/>
<path d="M105.355 296.287H64.4688V300.48H105.355V296.287Z" fill="#E0E8DA"/>
<path d="M120.028 288.948H113.738V300.48H120.028V288.948Z" fill="#E0E8DA"/>
<path d="M171.402 296.287H130.516V300.48H171.402V296.287Z" fill="#E0E8DA"/>
<path d="M188.177 289.996H181.887V301.528H188.177V289.996Z" fill="#E0E8DA"/>
<path d="M239.545 296.287H198.658V300.48H239.545V296.287Z" fill="#E0E8DA"/>
<path d="M608.566 297.335H567.68V301.528H608.566V297.335Z" fill="#E0E8DA"/>
<path d="M627.439 289.996H621.148V301.528H627.439V289.996Z" fill="#E0E8DA"/>
<path d="M678.812 297.335H637.926V301.528H678.812V297.335Z" fill="#E0E8DA"/>
<path d="M695.585 289.996H689.295V301.528H695.585V289.996Z" fill="#E0E8DA"/>
<path d="M744.857 297.335H703.971V301.528H744.857V297.335Z" fill="#E0E8DA"/>
<path d="M762.68 293.142H754.293V301.529H762.68V293.142Z" fill="#E0E8DA"/>
<path d="M94.8683 380.156H70.7559V432.575H94.8683V380.156Z" fill="#E0E8DA"/>
<path d="M101.162 434.671H64.4688V436.768H101.162V434.671Z" fill="#E0E8DA"/>
<path d="M69.7051 438.865V446.203H72.8502V442.01H92.7692V446.203H95.9143V438.865H69.7051Z" fill="#E0E8DA"/>
<path d="M94.8683 511.202H70.7559V563.62H94.8683V511.202Z" fill="#E0E8DA"/>
<path d="M101.162 565.718H64.4688V567.815H101.162V565.718Z" fill="#E0E8DA"/>
<path d="M69.7051 569.91V577.249H72.8502V573.055H92.7692V577.249H95.9143V569.91H69.7051Z" fill="#E0E8DA"/>
<path d="M229.062 511.202H204.949V563.62H229.062V511.202Z" fill="#E0E8DA"/>
<path d="M235.351 565.718H198.658V567.815H235.351V565.718Z" fill="#E0E8DA"/>
<path d="M203.9 569.91V577.249H207.045V573.055H226.964V577.249H230.11V569.91H203.9Z" fill="#E0E8DA"/>
<path d="M161.966 511.202H137.854V563.62H161.966V511.202Z" fill="#E0E8DA"/>
<path d="M168.257 565.718H131.564V567.815H168.257V565.718Z" fill="#E0E8DA"/>
<path d="M136.805 569.91V577.249H139.95V573.055H159.869V577.249H163.014V569.91H136.805Z" fill="#E0E8DA"/>
<path d="M229.062 380.156H204.949V432.575H229.062V380.156Z" fill="#E0E8DA"/>
<path d="M235.351 434.671H198.658V436.768H235.351V434.671Z" fill="#E0E8DA"/>
<path d="M203.9 438.865V446.203H207.045V442.01H226.964V446.203H230.11V438.865H203.9Z" fill="#E0E8DA"/>
<path d="M603.327 511.202H579.215V563.62H603.327V511.202Z" fill="#E0E8DA"/>
<path d="M609.621 565.718H572.928V567.815H609.621V565.718Z" fill="#E0E8DA"/>
<path d="M578.164 569.91V577.249H581.309V573.055H601.228V577.249H604.373V569.91H578.164Z" fill="#E0E8DA"/>
<path d="M603.327 380.156H579.215V432.575H603.327V380.156Z" fill="#E0E8DA"/>
<path d="M609.621 434.671H572.928V436.768H609.621V434.671Z" fill="#E0E8DA"/>
<path d="M578.164 438.865V446.203H581.309V442.01H601.228V446.203H604.373V438.865H578.164Z" fill="#E0E8DA"/>
<path d="M738.566 511.202H714.453V563.62H738.566V511.202Z" fill="#E0E8DA"/>
<path d="M744.859 565.718H708.166V567.815H744.859V565.718Z" fill="#E0E8DA"/>
<path d="M713.406 569.91V577.249H716.551V573.055H736.47V577.249H739.615V569.91H713.406Z" fill="#E0E8DA"/>
<path d="M738.566 380.156H714.453V432.575H738.566V380.156Z" fill="#E0E8DA"/>
<path d="M744.859 434.671H708.166V436.768H744.859V434.671Z" fill="#E0E8DA"/>
<path d="M713.406 438.865V446.203H716.551V442.01H736.47V446.203H739.615V438.865H713.406Z" fill="#E0E8DA"/>
<path d="M671.472 511.202H647.359V563.62H671.472V511.202Z" fill="#E0E8DA"/>
<path d="M677.761 565.718H641.068V567.815H677.761V565.718Z" fill="#E0E8DA"/>
<path d="M646.312 569.91V577.249H649.458V573.055H669.377V577.249H672.522V569.91H646.312Z" fill="#E0E8DA"/>
<path d="M671.472 380.156H647.359V432.575H671.472V380.156Z" fill="#E0E8DA"/>
<path d="M677.761 434.671H641.068V436.768H677.761V434.671Z" fill="#E0E8DA"/>
<path d="M646.312 438.865V446.203H649.458V442.01H669.377V446.203H672.522V438.865H646.312Z" fill="#E0E8DA"/>
<path d="M161.966 380.156H137.854V432.575H161.966V380.156Z" fill="#E0E8DA"/>
<path d="M168.257 434.671H131.564V436.768H168.257V434.671Z" fill="#E0E8DA"/>
<path d="M136.805 438.865V446.203H139.95V442.01H159.869V446.203H163.014V438.865H136.805Z" fill="#E0E8DA"/>
<path d="M389.459 435.72V438.865H391.556V437.816H421.958V438.865H424.055V435.72H389.459Z" fill="#E0E8DA"/>
<path d="M393.654 439.913V447.252H396.799V443.058H416.718V447.252H419.863V439.913H393.654Z" fill="#E0E8DA"/>
<path d="M482.766 435.72V438.865H484.862V437.816H515.265V438.865H517.362V435.72H482.766Z" fill="#E0E8DA"/>
<path d="M486.961 439.913V447.252H490.106V443.058H510.025V447.252H513.17V439.913H486.961Z" fill="#E0E8DA"/>
<path d="M295.109 435.72V438.865H297.206V437.816H327.609V438.865H329.706V435.72H295.109Z" fill="#E0E8DA"/>
<path d="M299.303 439.913V447.252H302.448V443.058H322.367V447.252H325.512V439.913H299.303Z" fill="#E0E8DA"/>
</svg>
